<svg xmlns="http://www.w3.org/2000/svg" viewBox="0 0 794.55 209.54" width="150" height="74">
  <path d="M0 180.18h58.72v29.36H0zM117.44 180.18h146.8v29.36h-146.8zM322.96 180.18H513.8v29.36H322.96zM572.52 180.18h220.2v29.36h-220.2z" fill="#4664af"/>
  <path d="M392.69 3.67h-110.1v26.91h40.37v105.21h29.36V30.58h40.37V3.67zM91.14 3.67L29.36 89.34V3.67H0v132.12h26.3l61.78-85.67v85.67h29.36V3.67h-26.3zM513.8 30.58V3.67H411.04v132.12H513.8v-26.91h-73.4v-26.3h70.95v-25.7H440.4v-26.3h73.4zM234.88 3.67v50.77h-57.5V3.67h-29.36v132.12h29.36V82.58h57.5v53.21h29.36V3.67h-29.36zM724.21 0c-39.76 0-70.34 31.22-70.34 69.73s30.58 69.73 70.34 69.73 70.34-31.22 70.34-69.73S764 0 724.21 0zm0 111.32c-26.1 0-41-19.29-41-41.59s14.88-41.59 41-41.59 41 19.29 41 41.59-14.9 41.59-41 41.59z" fill="#1e1e1e"/>
  <path d="M657.54 3.67h-35.12l-38.19 51.99h-13.55V3.67h-29.36v132.27h29.36V83.95h13.55l38.19 51.99h35.12l-49.62-66.13 49.62-66.14z" fill="#1e1e1e"/>
</svg>
