<svg xmlns="http://www.w3.org/2000/svg" viewBox="0 0 384 384" width="20" height="20">
  <path fill="#1e1e1e" d="M327.73 56.27a192 192 0 100 271.46 191.84 191.84 0 000-271.46zm-8 244.1A192.08 192.08 0 00291 279.14a310.9 310.9 0 0011.58-74.91h56.43a166 166 0 01-39.34 96.14zM25 204.23h56.38A310.4 310.4 0 0093 279.14a191.65 191.65 0 00-28.68 21.23A166 166 0 0125 204.23zm39.29-120.6A191.65 191.65 0 0093 104.86a310.4 310.4 0 00-11.59 74.91H25a166 166 0 0139.29-96.14zm115.48 23.76a166.15 166.15 0 01-57-14.44c10.37-26.71 29.49-58.75 57-66.68zm0 24.51v47.87h-73.91a288.16 288.16 0 019.28-63.43 190.47 190.47 0 0064.63 15.56zm0 72.33v47.87a190.47 190.47 0 00-64.63 15.56 288.16 288.16 0 01-9.28-63.43zm0 72.38v81.12c-27.53-7.93-46.65-40-57-66.67a166.17 166.17 0 0157-14.45zm24.46 0a166.17 166.17 0 0157 14.45c-10.37 26.71-29.49 58.74-57 66.67zm0-24.51v-47.87h73.91a288.16 288.16 0 01-9.28 63.43 190.41 190.41 0 00-64.63-15.56zm0-72.33V131.9a190.41 190.41 0 0064.63-15.56 288.16 288.16 0 019.28 63.43zm0-72.38V26.27c27.53 7.93 46.65 40 57 66.68a166.15 166.15 0 01-57 14.44zm55-68.91a166.6 166.6 0 0143.36 27.69 167.67 167.67 0 01-19.68 14.94C276.76 66 269 51.33 259.18 38.48zm-158 42.63a168.51 168.51 0 01-19.77-14.94 166.77 166.77 0 0143.36-27.69C115 51.33 107.24 66 101.14 81.11zm0 221.79c6.1 15.1 13.89 29.77 23.68 42.62a166.77 166.77 0 01-43.36-27.69 167.32 167.32 0 0119.68-14.93zm181.72 0a166.5 166.5 0 0119.68 14.93 166.86 166.86 0 01-43.36 27.69c9.73-12.85 17.49-27.52 23.59-42.62zm19.76-123.13A310.9 310.9 0 00291 104.86a192.08 192.08 0 0028.67-21.23 166 166 0 0139.34 96.14z"/>
</svg>
